# xmcd
#
# Track frame offsets:
#	150
#	9555
#	24414
#	36620
#	47911
#	59496
#	67313
#	77857
#	88746
#	98079
#	105342
#	117665
#	136692
#	149010
#	160041
#	176462
#	189978
#	200326
#	217650
#	226654
#	242753
#	253930
#	262289
#	271366
#	284610
#	294730
#	306677
#
# Disc length: 4201 seconds
#
# Revision: 1
# Processed by: cddbd v1.5.2PL0 Copyright (c) Steve Scherf et al.
# Submitted via: audiograbber 1.83.01
#
DISCID=a010671b
DTITLE=John D. Loudermilk - The Open Mind Of John D Loudermilk 
DYEAR=2006
DGENRE=
TTITLE0=Goin' To Hell On A Sled 
TTITLE1=The Jones' 
TTITLE2=War Babies 
TTITLE3=Peace Of Heart 
TTITLE4=Sidewalks 
TTITLE5=To Ann 
TTITLE6=More Than He'll Have To Give 
TTITLE7=Poor Little Pretty Girl 
TTITLE8=Nassau Town 
TTITLE9=Geraldine 
TTITLE10=Laura 
TTITLE11=Brown Girl 
TTITLE12=To Hell With Love 
TTITLE13=Ma Baker's Little Acre 
TTITLE14=No Playing In The Snow Today 
TTITLE15=Bad News 
TTITLE16=The Little Grave 
TTITLE17=Talkin' Silver Cloud Blues 
TTITLE18=I'm Looking For A World 
TTITLE19=The Lament Of The Cherokee Reservation Indian
TTITLE20=Interstate 40 
TTITLE21=Where Have They Gone 
TTITLE22=The Little Bird 
TTITLE23=Tobacco Road 
TTITLE24=Bubble, Please Break 
TTITLE25=It's My Time 
TTITLE26=That Ain't All 
EXTD=The Omni Recording Corporation, Australia
EXTT0=
EXTT1=
EXTT2=
EXTT3=
EXTT4=
EXTT5=
EXTT6=
EXTT7=
EXTT8=
EXTT9=
EXTT10=
EXTT11=
EXTT12=
EXTT13=
EXTT14=
EXTT15=
EXTT16=
EXTT17=
EXTT18=
EXTT19=
EXTT20=
EXTT21=
EXTT22=
EXTT23=
EXTT24=
EXTT25=
EXTT26=
PLAYORDER=
